<svg xmlns="http://www.w3.org/2000/svg" xmlns:xlink="http://www.w3.org/1999/xlink" width="1126" height="519">

  <defs>
    <g id="atom1"> <circle cx="0" cy="0" r="14.0" fill="#808080" stroke="black" stroke-width="3.023030900454495"/> </g>
    <g id="atom6"> <circle cx="0" cy="0" r="28.0" fill="#c0c0c0" stroke="black" stroke-width="3.023030900454495"/> </g>
    <g id="atom7"> <circle cx="0" cy="0" r="26.0" fill="#0000ff" stroke="black" stroke-width="3.023030900454495"/> </g>
    <g id="atom16"> <circle cx="0" cy="0" r="40.0" fill="#f0f000" stroke="black" stroke-width="3.023030900454495"/> </g>
    <g id="values"> <circle cx="0" cy="0" r="8.0" stroke="black" stroke-width="3.023030900454495"/> </g>
  </defs>

  <use x="1086.2578800000001" y="160.84668800000003" xlink:href="#atom1"/>
    <line x1="1078.4341159082774" y1="165.58711862669836" x2="1030.0834801834455" y2="194.8828427466034" stroke="black" stroke-width="3.023030900454495"/>
  <use x="1061.751504" y="377.41665600000005" xlink:href="#atom1"/>
    <line x1="1055.277938179802" y1="370.81398148719813" x2="1015.1871556403958" y2="329.9236290256039" stroke="black" stroke-width="3.023030900454495"/>
  <use x="1014.435952" y="204.363704" xlink:href="#atom6"/>
    <line x1="1012.4261662774725" y1="222.87878728890013" x2="1004.2498097225275" y2="298.2031967110999" stroke="black" stroke-width="3.023030900454495"/>
    <line x1="997.4345055564895" y1="197.51878361585278" x2="931.8947264435105" y2="171.13193638414725" stroke="black" stroke-width="3.023030900454495"/>
  <use x="1002.2400240000001" y="316.71828" xlink:href="#atom6"/>
    <line x1="984.6151196417492" y1="321.3991387926749" x2="919.6733986183758" y2="338.64649626394475" stroke="black" stroke-width="3.023030900454495"/>
  <use x="914.89328" y="164.287016" xlink:href="#atom6"/>
    <line x1="908.0867342947523" y1="146.9527144355604" x2="887.0591368526239" y2="93.40151078221979" stroke="black" stroke-width="3.023030900454495"/>
    <line x1="903.7881012840837" y1="179.00634354521583" x2="860.0928236647794" y2="236.92212499372818" stroke="black" stroke-width="3.023030900454495"/>
  <use x="883.655864" y="84.73436" xlink:href="#atom1"/>
  <use x="903.3074160000001" y="342.993008" xlink:href="#atom7"/>
    <line x1="894.6574470065428" y1="328.0605563307046" x2="858.4308409934573" y2="265.52252366929537" stroke="black" stroke-width="3.023030900454495"/>
  <use x="849.780872" y="250.590072" xlink:href="#atom7"/>
    <line x1="832.8542888929653" y1="250.24151736649517" x2="761.719643961422" y2="248.77670252838982" stroke="black" stroke-width="3.023030900454495"/>
  <use x="743.491016" y="248.40133600000001" xlink:href="#atom6"/>
    <line x1="733.7118375827196" y1="232.61130957461842" x2="697.783105673189" y2="174.59870339499724" stroke="black" stroke-width="3.023030900454495"/>
    <line x1="733.5877098330973" y1="263.98952762559827" x2="683.8097642384323" y2="342.3419628205739" stroke="black" stroke-width="3.023030900454495"/>
  <use x="688.70244" y="159.936536" xlink:href="#atom7"/>
    <line x1="671.9828405847211" y1="162.5113843745894" x2="604.9641994152789" y2="172.8323756254106" stroke="black" stroke-width="3.023030900454495"/>
  <use x="669.662184" y="364.610808" xlink:href="#atom16"/>
    <line x1="649.2782782597035" y1="347.9202273728368" x2="574.8193660182076" y2="286.9523984390143" stroke="black" stroke-width="3.023030900454495"/>
  <use x="588.2446" y="175.40722399999999" xlink:href="#atom7"/>
    <line x1="583.6338866489245" y1="192.0330100549129" x2="565.5160156088506" y2="257.36429932547844" stroke="black" stroke-width="3.023030900454495"/>
  <use x="560.550632" y="275.268992" xlink:href="#atom6"/>
    <line x1="543.9982920631827" y1="282.94062464496824" x2="480.70806194133036" y2="312.27420511538674" stroke="black" stroke-width="3.023030900454495"/>
  <use x="465.338032" y="319.397864" xlink:href="#atom7"/>
    <line x1="452.0028558884969" y1="308.66204726804887" x2="399.5942241115031" y2="266.4691687319512" stroke="black" stroke-width="3.023030900454495"/>
  <use x="386.259048" y="255.73335200000002" xlink:href="#atom7"/>
    <line x1="371.0630194220388" y1="263.20318242177075" x2="308.179585853189" y2="294.1144552380931" stroke="black" stroke-width="3.023030900454495"/>
  <use x="291.814632" y="302.15888800000005" xlink:href="#atom6"/>
    <line x1="285.4366521716218" y1="319.5635745331152" x2="260.1307078283782" y2="388.62024146688486" stroke="black" stroke-width="3.023030900454495"/>
    <line x1="276.9201127212692" y1="291.33141969233435" x2="216.47040104453578" y2="247.38791771426096" stroke="black" stroke-width="3.023030900454495"/>
  <use x="297.88322400000004" y="479.12710400000003" xlink:href="#atom1"/>
    <line x1="293.0818265812068" y1="471.17358815566035" x2="263.3555228375865" y2="421.9319596886793" stroke="black" stroke-width="3.023030900454495"/>
  <use x="253.75272800000002" y="406.024928" xlink:href="#atom6"/>
    <line x1="235.55221879865115" y1="405.83817019380706" x2="165.43360882982395" y2="405.11867396289347" stroke="black" stroke-width="3.023030900454495"/>
  <use x="191.56939200000005" y="40.0" xlink:href="#atom7"/>
    <line x1="192.9358027776015" y1="57.259361945739364" x2="197.3111207010446" y2="112.52473082766531" stroke="black" stroke-width="3.023030900454495"/>
  <use x="198.78264000000001" y="131.111736" xlink:href="#atom6"/>
    <line x1="199.45909374506647" y1="149.74067209653373" x2="202.0116403795812" y2="220.03554219607588" stroke="black" stroke-width="3.023030900454495"/>
  <use x="202.63977600000004" y="237.33384" xlink:href="#atom7"/>
    <line x1="189.45091042024845" y1="248.05145476436144" x2="133.56938570127096" y2="293.4622333306877" stroke="black" stroke-width="3.023030900454495"/>
  <use x="148.533136" y="404.94525600000003" xlink:href="#atom7"/>
    <line x1="143.68394846590493" y1="388.32955530045626" x2="124.58819395979472" y2="322.89811152258557" stroke="black" stroke-width="3.023030900454495"/>
  <use x="119.36599200000003" y="305.00428" xlink:href="#atom6"/>
    <line x1="102.1130045632444" y1="298.93535638872135" x2="48.626493718377816" y2="280.12090180563933" stroke="black" stroke-width="3.023030900454495"/>
  <use x="40.0" y="277.08644" xlink:href="#atom1"/>
  <use fill="#02fd00" x="1086.2578800000001" y="160.84668800000003" xlink:href="#values"/>
  <use fill="#02fd00" x="1061.751504" y="377.41665600000005" xlink:href="#values"/>
  <use fill="#38c700" x="1014.435952" y="204.363704" xlink:href="#values"/>
  <use fill="#629d00" x="1002.2400240000001" y="316.71828" xlink:href="#values"/>
  <use fill="#14eb00" x="914.89328" y="164.287016" xlink:href="#values"/>
  <use fill="#00ff00" x="883.655864" y="84.73436" xlink:href="#values"/>
  <use fill="#0bf400" x="903.3074160000001" y="342.993008" xlink:href="#values"/>
  <use fill="#966900" x="849.780872" y="250.590072" xlink:href="#values"/>
  <use fill="#aa5500" x="743.491016" y="248.40133600000001" xlink:href="#values"/>
  <use fill="#fb0400" x="688.70244" y="159.936536" xlink:href="#values"/>
  <use fill="#19e600" x="669.662184" y="364.610808" xlink:href="#values"/>
  <use fill="#986700" x="588.2446" y="175.40722399999999" xlink:href="#values"/>
  <use fill="#d42b00" x="560.550632" y="275.268992" xlink:href="#values"/>
  <use fill="#8b7400" x="465.338032" y="319.397864" xlink:href="#values"/>
  <use fill="#699600" x="386.259048" y="255.73335200000002" xlink:href="#values"/>
  <use fill="#ff0000" x="291.814632" y="302.15888800000005" xlink:href="#values"/>
  <use fill="#04fb00" x="297.88322400000004" y="479.12710400000003" xlink:href="#values"/>
  <use fill="#b14e00" x="253.75272800000002" y="406.024928" xlink:href="#values"/>
  <use fill="#07f800" x="191.56939200000005" y="40.0" xlink:href="#values"/>
  <use fill="#02fd00" x="198.78264000000001" y="131.111736" xlink:href="#values"/>
  <use fill="#12ed00" x="202.63977600000004" y="237.33384" xlink:href="#values"/>
  <use fill="#2fd000" x="148.533136" y="404.94525600000003" xlink:href="#values"/>
  <use fill="#ae5100" x="119.36599200000003" y="305.00428" xlink:href="#values"/>
  <use fill="#04fb00" x="40.0" y="277.08644" xlink:href="#values"/>
</svg>
