<svg xmlns="http://www.w3.org/2000/svg" xmlns:xlink="http://www.w3.org/1999/xlink" width="1140" height="471">

  <defs>
    <g id="atom1"> <circle cx="0" cy="0" r="5.6" fill="#808080" stroke="black" stroke-width="3.023030900454495"/> </g>
    <g id="atom6"> <circle cx="0" cy="0" r="11.2" fill="#c0c0c0" stroke="black" stroke-width="3.023030900454495"/> </g>
    <g id="atom7"> <circle cx="0" cy="0" r="10.4" fill="#0000ff" stroke="black" stroke-width="3.023030900454495"/> </g>
    <g id="atom16"> <circle cx="0" cy="0" r="16.0" fill="#f0f000" stroke="black" stroke-width="3.023030900454495"/> </g>
  </defs>

  <style>
  .atnum {
   font-size:24.0px;font-style:normal; font-weight:bold;
   font-family:'monospace'; paint-order:stroke fill markers;
   fill:#000000; fill-opacity:1.0;
   stroke:#FFFFFF;stroke-width:8.0; stroke-opacity:1.0;
    text-align:start; writing-mode:lr-tb; text-anchor:start;
  }
  </style>

  <use x="1062.25788" y="136.84668800000003" xlink:href="#atom1"/>
    <line x1="1059.128374363311" y1="138.74286025067934" x2="996.6949632733781" y2="176.57135949864139" stroke="black" stroke-width="3.023030900454495"/>
  <use x="1037.751504" y="353.416656" xlink:href="#atom1"/>
    <line x1="1035.1620776719208" y1="350.7755861948792" x2="983.4188766561584" y2="298.0004196102416" stroke="black" stroke-width="3.023030900454495"/>
  <use x="990.435952" y="180.36370400000004" xlink:href="#atom6"/>
    <line x1="989.632037710989" y1="187.7697373155601" x2="979.0439382890111" y2="285.31224668443997" stroke="black" stroke-width="3.023030900454495"/>
    <line x1="983.6353734225958" y1="177.62573584634112" x2="897.6938585774042" y2="143.02498415365892" stroke="black" stroke-width="3.023030900454495"/>
  <use x="978.2400240000002" y="292.71828000000005" xlink:href="#atom6"/>
    <line x1="971.1900622566998" y1="294.59062351706996" x2="885.8538090473503" y2="317.25440330557797" stroke="black" stroke-width="3.023030900454495"/>
  <use x="890.89328" y="140.28701600000002" xlink:href="#atom6"/>
    <line x1="888.1706617179009" y1="133.3532953742242" x2="861.0171731410496" y2="64.20122031288793" stroke="black" stroke-width="3.023030900454495"/>
    <line x1="886.4512085136334" y1="146.17474701808635" x2="829.9056526659117" y2="221.12289319749127" stroke="black" stroke-width="3.023030900454495"/>
  <use x="859.6558640000001" y="60.73436000000001" xlink:href="#atom1"/>
  <use x="879.3074160000001" y="318.99300800000003" xlink:href="#atom7"/>
    <line x1="875.8474284026171" y1="313.02002733228187" x2="829.240859597383" y2="232.56305266771815" stroke="black" stroke-width="3.023030900454495"/>
  <use x="825.780872" y="226.59007200000002" xlink:href="#atom7"/>
    <line x1="819.010238757186" y1="226.4506501465981" x2="726.7824671845689" y2="224.55148261135594" stroke="black" stroke-width="3.023030900454495"/>
  <use x="719.4910160000001" y="224.40133600000001" xlink:href="#atom6"/>
    <line x1="715.5793446330879" y1="218.0853254298474" x2="668.3347062692757" y2="141.8014029579989" stroke="black" stroke-width="3.023030900454495"/>
    <line x1="715.529693533239" y1="230.63661265023936" x2="651.321216095373" y2="331.7032699282295" stroke="black" stroke-width="3.023030900454495"/>
  <use x="664.70244" y="135.93653600000002" xlink:href="#atom7"/>
    <line x1="658.0146002338886" y1="136.96647534983578" x2="570.9324397661115" y2="150.37728465016426" stroke="black" stroke-width="3.023030900454495"/>
  <use x="645.662184" y="340.610808" xlink:href="#atom16"/>
    <line x1="637.5086217038814" y1="333.9345757491347" x2="542.258125607283" y2="255.94235457560575" stroke="black" stroke-width="3.023030900454495"/>
  <use x="564.2446" y="151.40722400000004" xlink:href="#atom7"/>
    <line x1="562.4003146595699" y1="158.0575384219652" x2="538.5367854435402" y2="244.1071149301914" stroke="black" stroke-width="3.023030900454495"/>
  <use x="536.550632" y="251.26899200000003" xlink:href="#atom6"/>
    <line x1="529.9296960252731" y1="254.33764505798732" x2="447.4860439765322" y2="292.5484004461547" stroke="black" stroke-width="3.023030900454495"/>
  <use x="441.338032" y="295.397864" xlink:href="#atom7"/>
    <line x1="436.00396155539886" y1="291.1035373072196" x2="367.5931184446012" y2="236.0276786927805" stroke="black" stroke-width="3.023030900454495"/>
  <use x="362.259048" y="231.73335200000002" xlink:href="#atom7"/>
    <line x1="356.18063656881554" y1="234.7212841687083" x2="274.36061354127565" y2="274.94111489523726" stroke="black" stroke-width="3.023030900454495"/>
  <use x="267.814632" y="278.15888800000005" xlink:href="#atom6"/>
    <line x1="265.2634400686487" y1="285.12076261324614" x2="232.3039199313513" y2="375.06305338675395" stroke="black" stroke-width="3.023030900454495"/>
    <line x1="261.8568242885077" y1="273.8279006769338" x2="184.17202601781435" y2="217.3554710857044" stroke="black" stroke-width="3.023030900454495"/>
  <use x="273.88322400000004" y="455.12710400000003" xlink:href="#atom1"/>
    <line x1="271.96266503248273" y1="451.94569766226414" x2="233.5938459350346" y2="388.3877406754717" stroke="black" stroke-width="3.023030900454495"/>
  <use x="229.75272800000002" y="382.02492800000005" xlink:href="#atom6"/>
    <line x1="222.4725243194605" y1="381.9502248775228" x2="131.2933251319296" y2="381.01462318515746" stroke="black" stroke-width="3.023030900454495"/>
  <use x="167.56939200000005" y="16.000000000000014" xlink:href="#atom7"/>
    <line x1="168.11595631104066" y1="22.90374477829576" x2="174.19403228041787" y2="99.67693393106615" stroke="black" stroke-width="3.023030900454495"/>
  <use x="174.78264000000001" y="107.11173600000002" xlink:href="#atom6"/>
    <line x1="175.05322149802663" y1="114.56331043861351" x2="178.3885217518325" y2="206.41452087843035" stroke="black" stroke-width="3.023030900454495"/>
  <use x="178.63977600000004" y="213.33384" xlink:href="#atom7"/>
    <line x1="173.36422976809942" y1="217.62088590574461" x2="101.04734948050842" y2="276.3874613322751" stroke="black" stroke-width="3.023030900454495"/>
  <use x="124.53313600000001" y="380.94525600000003" xlink:href="#atom7"/>
    <line x1="122.59346098636199" y1="374.29897572018257" x2="97.45487278391792" y2="288.16181260903426" stroke="black" stroke-width="3.023030900454495"/>
  <use x="95.36599200000005" y="281.00428" xlink:href="#atom6"/>
    <line x1="88.46479702529778" y1="278.57671055548855" x2="19.45059748735114" y2="254.30022472225573" stroke="black" stroke-width="3.023030900454495"/>
  <use x="16.000000000000014" y="253.08644" xlink:href="#atom1"/>

  <text x="890.89328" y="140.28701600000002" class="atnum">0.009</text>
  <text x="990.435952" y="180.36370400000004" class="atnum">0.025</text>
  <text x="978.2400240000002" y="292.71828000000005" class="atnum">0.044</text>
  <text x="879.3074160000001" y="318.99300800000003" class="atnum">0.005</text>
  <text x="825.780872" y="226.59007200000002" class="atnum">0.067</text>
  <text x="719.4910160000001" y="224.40133600000001" class="atnum">0.076</text>
  <text x="645.662184" y="340.610808" class="atnum">0.011</text>
  <text x="536.550632" y="251.26899200000003" class="atnum">0.095</text>
  <text x="564.2446" y="151.40722400000004" class="atnum">0.068</text>
  <text x="664.70244" y="135.93653600000002" class="atnum">0.112</text>
  <text x="441.338032" y="295.397864" class="atnum">0.062</text>
  <text x="362.259048" y="231.73335200000002" class="atnum">0.047</text>
  <text x="267.814632" y="278.15888800000005" class="atnum">0.114</text>
  <text x="229.75272800000002" y="382.02492800000005" class="atnum">0.079</text>
  <text x="124.53313600000001" y="380.94525600000003" class="atnum">0.021</text>
  <text x="95.36599200000005" y="281.00428" class="atnum">0.078</text>
  <text x="178.63977600000004" y="213.33384" class="atnum">0.008</text>
  <text x="174.78264000000001" y="107.11173600000002" class="atnum">0.001</text>
  <text x="167.56939200000005" y="16.000000000000014" class="atnum">0.003</text>
  <text x="859.6558640000001" y="60.73436000000001" class="atnum">0.000</text>
  <text x="1062.25788" y="136.84668800000003" class="atnum">0.001</text>
  <text x="1037.751504" y="353.416656" class="atnum">0.001</text>
  <text x="273.88322400000004" y="455.12710400000003" class="atnum">0.002</text>
  <text x="16.000000000000014" y="253.08644" class="atnum">0.002</text>
</svg>
