<svg xmlns="http://www.w3.org/2000/svg" xmlns:xlink="http://www.w3.org/1999/xlink" width="572" height="562">

  <defs>
    <g id="atom6"> <circle cx="0" cy="0" r="11.2" fill="#c0c0c0" stroke="#000000" stroke-width="2.418424720363596"/> </g>
  </defs>

  <circle cx="361.781944" cy="326.363992" r="11.2" fill="#e8e8e8" stroke="#a3a3a3" stroke-width="2.418424720363596"/>
    <line x1="361.61514668814743" y1="318.9147912411369" x2="359.4720613118527" y2="223.20417675886307" stroke="#a1a1a1" stroke-width="6.04606180090899"/>
    <line x1="355.412200031546" y1="330.21431031605374" x2="273.340543968454" y2="379.8241536839463" stroke="#a0a0a0" stroke-width="6.04606180090899"/>
    <line x1="367.0295667572004" y1="330.1226141586052" x2="434.89564124279957" y2="378.73184984139476" stroke="#929292" stroke-width="6.04606180090899"/>
  <circle cx="359.3052640000001" cy="215.75497600000003" r="11.2" fill="#e7e7e7" stroke="#9f9f9f" stroke-width="2.418424720363596"/>
    <line x1="352.7965971412949" y1="212.21093609280305" x2="268.8244268587051" y2="166.48717590719698" stroke="#9c9c9c" stroke-width="6.04606180090899"/>
    <line x1="364.36458122902366" y1="212.08500704033952" x2="429.5990347709764" y2="164.76470495966052" stroke="#8d8d8d" stroke-width="6.04606180090899"/>
  <circle cx="266.9708" cy="383.67447200000004" r="11.2" fill="#e7e7e7" stroke="#9e9e9e" stroke-width="2.418424720363596"/>
    <line x1="260.4502758595214" y1="380.13130464093115" x2="176.2475801404786" y2="334.37666335906886" stroke="#9b9b9b" stroke-width="6.04606180090899"/>
    <line x1="268.242346407409" y1="389.8284021401196" x2="284.621085592591" y2="469.0969338598803" stroke="#8c8c8c" stroke-width="6.04606180090899"/>
  <circle cx="262.31576" cy="162.94313600000004" r="11.2" fill="#e5e5e5" stroke="#989898" stroke-width="2.418424720363596"/>
    <line x1="255.90470438086675" y1="166.73374242303544" x2="172.9250716191333" y2="215.79635357696458" stroke="#969696" stroke-width="6.04606180090899"/>
    <line x1="263.3782169261223" y1="157.0749852912956" x2="277.12856707387766" y2="81.12919870870444" stroke="#848484" stroke-width="6.04606180090899"/>
  <circle cx="169.727056" cy="330.83349599999997" r="11.2" fill="#e5e5e5" stroke="#979797" stroke-width="2.418424720363596"/>
    <line x1="169.51195948061593" y1="323.3861120000691" x2="166.7291125193841" y2="227.03434399993088" stroke="#969696" stroke-width="6.04606180090899"/>
    <line x1="164.54141449148665" y1="333.39428593006903" x2="97.7099855085134" y2="366.397194069931" stroke="#838383" stroke-width="6.04606180090899"/>
  <circle cx="166.514016" cy="219.58696" r="11.2" fill="#e4e4e4" stroke="#949494" stroke-width="2.418424720363596"/>
    <line x1="161.18013175115516" y1="217.52142273469792" x2="92.44781224884488" y2="190.90495326530205" stroke="#808080" stroke-width="6.04606180090899"/>
  <circle cx="440.14326400000004" cy="382.490472" r="11.2" fill="#e0e0e0" stroke="#828282" stroke-width="2.418424720363596"/>
    <line x1="436.9908185856346" y1="388.65730885382953" x2="396.3071974143654" y2="468.2429071461705" stroke="#777777" stroke-width="6.04606180090899"/>
    <line x1="445.2137100650708" y1="378.8050737867732" x2="510.56800193492916" y2="331.30302221322677" stroke="#727272" stroke-width="6.04606180090899"/>
  <circle cx="434.65835200000004" cy="161.094736" r="11.2" fill="#dedede" stroke="#7c7c7c" stroke-width="2.418424720363596"/>
    <line x1="431.3331916440525" y1="155.26814926892027" x2="388.46767235594757" y2="80.15608273107975" stroke="#6f6f6f" stroke-width="6.04606180090899"/>
    <line x1="439.9383329821774" y1="164.79352664224075" x2="508.25698701782255" y2="212.65286535775928" stroke="#6e6e6e" stroke-width="6.04606180090899"/>
  <circle cx="285.892632" cy="475.250864" r="11.2" fill="#dedede" stroke="#7c7c7c" stroke-width="2.418424720363596"/>
    <line x1="293.0760508886999" y1="475.1945336077267" x2="385.97133311130017" y2="474.4660743922733" stroke="#747474" stroke-width="6.04606180090899"/>
    <line x1="280.73043952473836" y1="477.8724715262405" x2="214.07727247526165" y2="511.72212847375954" stroke="#696969" stroke-width="6.04606180090899"/>
  <circle cx="278.191024" cy="75.26104800000002" r="11.2" fill="#dcdcdc" stroke="#727272" stroke-width="2.418424720363596"/>
    <line x1="285.3791929411812" y1="75.19843874342291" x2="377.95434305881884" y2="74.39210525657711" stroke="#6b6b6b" stroke-width="6.04606180090899"/>
    <line x1="272.84656717683885" y1="73.20549960167554" x2="203.7847608231612" y2="46.64342039832448" stroke="#606060" stroke-width="6.04606180090899"/>
  <circle cx="92.52434400000001" cy="368.957984" r="11.2" fill="#dbdbdb" stroke="#707070" stroke-width="2.418424720363596"/>
    <line x1="89.12423939754787" y1="363.116512856355" x2="45.12150460245218" y2="287.5186311436451" stroke="#646464" stroke-width="6.04606180090899"/>
    <line x1="93.82252883736099" y1="375.1241409383547" x2="110.57215116263906" y2="454.68199506164535" stroke="#616161" stroke-width="6.04606180090899"/>
  <circle cx="87.11392800000002" cy="188.839416" r="11.2" fill="#dbdbdb" stroke="#6d6d6d" stroke-width="2.418424720363596"/>
    <line x1="84.06462201123315" y1="195.07592013924523" x2="44.77070598876689" y2="275.4406558607548" stroke="#636363" stroke-width="6.04606180090899"/>
    <line x1="88.19946110491802" y1="182.95065380185144" x2="102.151090895082" y2="107.26633819814859" stroke="#5d5d5d" stroke-width="6.04606180090899"/>
  <circle cx="393.15475200000003" cy="474.40974400000005" r="11.2" fill="#dadada" stroke="#6c6c6c" stroke-width="2.418424720363596"/>
    <line x1="395.11092925721704" y1="476.9713132416682" x2="420.358422742783" y2="510.0323267583319" stroke="#545454" stroke-width="6.04606180090899"/>
  <circle cx="385.142512" cy="74.329496" r="11.2" fill="#d8d8d8" stroke="#636363" stroke-width="2.418424720363596"/>
    <line x1="387.0688104873219" y1="72.17771431249203" x2="411.96573351267807" y2="44.36647768750801" stroke="#4c4c4c" stroke-width="6.04606180090899"/>
  <circle cx="515.6384479999999" cy="327.61762400000003" r="11.2" fill="#d8d8d8" stroke="#626262" stroke-width="2.418424720363596"/>
    <line x1="515.4977847259756" y1="320.1699988280422" x2="513.6776312740243" y2="223.79928117195783" stroke="#616161" stroke-width="6.04606180090899"/>
    <line x1="517.5642978568743" y1="330.10671198663226" x2="542.3780541431257" y2="362.1775520133678" stroke="#4c4c4c" stroke-width="6.04606180090899"/>
  <circle cx="513.536968" cy="216.351656" r="11.2" fill="#d7d7d7" stroke="#606060" stroke-width="2.418424720363596"/>
    <line x1="515.4704242616274" y1="214.22550844009868" x2="540.4241677383727" y2="186.78483555990135" stroke="#494949" stroke-width="6.04606180090899"/>
  <circle cx="41.721400000000024" cy="281.67716" r="11.2" fill="#d6d6d6" stroke="#595959" stroke-width="2.418424720363596"/>
    <line x1="39.67396488094306" y1="282.04051771636716" x2="13.247435119056972" y2="286.73042628363294" stroke="#424242" stroke-width="6.04606180090899"/>
  <circle cx="208.91508000000002" cy="514.343736" r="11.2" fill="#d5d5d5" stroke="#585858" stroke-width="2.418424720363596"/>
    <line x1="202.41416229702793" y1="510.76012729826107" x2="118.3712537029721" y2="464.431760701739" stroke="#565656" stroke-width="6.04606180090899"/>
    <line x1="210.90365899201538" y1="516.8526848491856" x2="236.51830100798466" y2="549.1701471508144" stroke="#434343" stroke-width="6.04606180090899"/>
  <circle cx="111.87033600000004" cy="460.848152" r="11.2" fill="#d4d4d4" stroke="#545454" stroke-width="2.418424720363596"/>
    <line x1="109.8779757670191" y1="461.15341863378455" x2="84.20937623298096" y2="465.0863253662155" stroke="#3d3d3d" stroke-width="6.04606180090899"/>
  <circle cx="198.44030400000003" cy="44.587872" r="11.2" fill="#d3d3d3" stroke="#505050" stroke-width="2.418424720363596"/>
    <line x1="192.04128068438973" y1="48.40493705444545" x2="109.6356473156103" y2="97.56051094555457" stroke="#4f4f4f" stroke-width="6.04606180090899"/>
    <line x1="200.4086696599544" y1="42.433165777691585" x2="225.83208234004562" y2="14.602978222308405" stroke="#3b3b3b" stroke-width="6.04606180090899"/>
  <circle cx="103.236624" cy="101.377576" r="11.2" fill="#d3d3d3" stroke="#4e4e4e" stroke-width="2.418424720363596"/>
    <line x1="101.30675623361296" y1="101.73962362581557" x2="76.44129976638706" y2="106.40444037418446" stroke="#383838" stroke-width="6.04606180090899"/>
  <circle cx="422.3146" cy="512.5938960000001" r="11.2" fill="#cfcfcf" stroke="#3f3f3f" stroke-width="2.418424720363596"/>
    <line x1="427.365847086853" y1="508.8705612605258" x2="492.49057691314704" y2="460.8663427394743" stroke="#343434" stroke-width="6.04606180090899"/>
    <line x1="417.1555478290196" y1="515.1767551962486" x2="350.71421217098043" y2="548.4403488037516" stroke="#323232" stroke-width="6.04606180090899"/>
  <circle cx="544.303904" cy="364.66664000000003" r="11.2" fill="#cdcdcd" stroke="#383838" stroke-width="2.418424720363596"/>
    <line x1="541.1714458216354" y1="370.8613677633297" x2="500.6742821783646" y2="450.94828023667037" stroke="#313131" stroke-width="6.04606180090899"/>
    <line x1="545.413954166546" y1="358.80201528641646" x2="559.7101738334541" y2="283.2721287135835" stroke="#2c2c2c" stroke-width="6.04606180090899"/>
  <circle cx="413.892032" cy="42.214696000000025" r="11.2" fill="#cdcdcd" stroke="#383838" stroke-width="2.418424720363596"/>
    <line x1="419.2052878250394" y1="45.92923202521526" x2="487.62947217496054" y2="93.76507997478475" stroke="#2e2e2e" stroke-width="6.04606180090899"/>
    <line x1="408.5736582016762" y1="40.13670211641038" x2="339.83204579832375" y2="13.277993883589653" stroke="#2b2b2b" stroke-width="6.04606180090899"/>
  <circle cx="542.357624" cy="184.65868800000004" r="11.2" fill="#cdcdcd" stroke="#353535" stroke-width="2.418424720363596"/>
    <line x1="539.0329814357252" y1="178.79326528444525" x2="496.2673705642748" y2="103.34503871555478" stroke="#2d2d2d" stroke-width="6.04606180090899"/>
    <line x1="543.5944400137155" y1="190.87196353442903" x2="559.5834079862846" y2="271.194228465571" stroke="#2b2b2b" stroke-width="6.04606180090899"/>
  <circle cx="238.50688000000002" cy="551.6790960000001" r="11.2" fill="#cccccc" stroke="#303030" stroke-width="2.418424720363596"/>
    <line x1="245.68527759598453" y1="551.6351137441204" x2="338.37676240401555" y2="551.0671902558796" stroke="#2b2b2b" stroke-width="6.04606180090899"/>
    <line x1="233.27206499863541" y1="549.65846298893" x2="165.83105500136458" y2="523.6263050110701" stroke="#252525" stroke-width="6.04606180090899"/>
  <circle cx="11.20000000000001" cy="287.093784" r="11.2" fill="#cbcbcb" stroke="#2f2f2f" stroke-width="2.418424720363596"/>
    <line x1="12.577659499097111" y1="293.22852318092725" x2="30.318060500902924" y2="372.22680481907275" stroke="#252525" stroke-width="6.04606180090899"/>
    <line x1="12.34448682466255" y1="281.2236042902162" x2="27.104329175337472" y2="205.5189957097838" stroke="#242424" stroke-width="6.04606180090899"/>
  <circle cx="82.21701600000003" cy="465.391592" r="11.2" fill="#cacaca" stroke="#2b2b2b" stroke-width="2.418424720363596"/>
    <line x1="78.82744925044247" y1="459.55258587250086" x2="35.08528674955759" y2="384.2005501274991" stroke="#232323" stroke-width="6.04606180090899"/>
    <line x1="87.46869712181065" y1="469.1581312389692" x2="155.3445588781894" y2="517.8391327610309" stroke="#222222" stroke-width="6.04606180090899"/>
  <circle cx="497.541824" cy="457.143008" r="11.2" fill="#cacaca" stroke="#2a2a2a" stroke-width="2.418424720363596"/>
    <line x1="495.52968182811867" y1="457.4674782991786" x2="469.5132141718814" y2="461.66279370082145" stroke="#1b1b1b" stroke-width="6.04606180090899"/>
  <circle cx="227.80044800000002" cy="12.448271999999996" r="11.2" fill="#cacaca" stroke="#292929" stroke-width="2.418424720363596"/>
    <line x1="234.97755360503265" y1="12.364318206533824" x2="327.33656639496735" y2="11.283953793466182" stroke="#252525" stroke-width="6.04606180090899"/>
    <line x1="222.6276869056595" y1="15.089815882455985" x2="155.98249709434057" y2="49.12312811754403" stroke="#1f1f1f" stroke-width="6.04606180090899"/>
  <circle cx="345.55516000000006" cy="551.0232080000001" r="11.2" fill="#c9c9c9" stroke="#272727" stroke-width="2.418424720363596"/>
    <line x1="347.4218509849206" y1="548.9631992524072" x2="371.48568501507947" y2="522.4072727475927" stroke="#181818" stroke-width="6.04606180090899"/>
  <circle cx="74.51143200000001" cy="106.76648800000002" r="11.2" fill="#c9c9c9" stroke="#262626" stroke-width="2.418424720363596"/>
    <line x1="71.4148954900875" y1="112.98346284157986" x2="31.34535250991252" y2="193.43184115842018" stroke="#202020" stroke-width="6.04606180090899"/>
    <line x1="79.61911753897388" y1="103.08446670368782" x2="145.70205046102615" y2="55.4466932963122" stroke="#1e1e1e" stroke-width="6.04606180090899"/>
  <circle cx="492.942728" cy="97.479616" r="11.2" fill="#c9c9c9" stroke="#252525" stroke-width="2.418424720363596"/>
    <line x1="490.8415368908314" y1="97.81019561085671" x2="463.7997591091687" y2="102.0646683891433" stroke="#171717" stroke-width="6.04606180090899"/>
  <circle cx="560.820224" cy="277.407504" r="11.2" fill="#c8c8c8" stroke="#222222" stroke-width="2.418424720363596"/>
    <line x1="558.8121077247721" y1="277.69757211313987" x2="532.9113322752279" y2="281.43888388686014" stroke="#141414" stroke-width="6.04606180090899"/>
  <circle cx="334.513672" cy="11.20000000000001" r="11.2" fill="#c8c8c8" stroke="#212121" stroke-width="2.418424720363596"/>
    <line x1="336.5140744782488" y1="13.754036653575682" x2="362.3042455217512" y2="46.68193134642435" stroke="#141414" stroke-width="6.04606180090899"/>
  <circle cx="31.695720000000023" cy="378.361544" r="11.2" fill="#c7c7c7" stroke="#1d1d1d" stroke-width="2.418424720363596"/>
    <line x1="33.62609680267833" y1="376.32475931333204" x2="58.47096719732171" y2="350.1103686866679" stroke="#111111" stroke-width="6.04606180090899"/>
  <circle cx="28.248816000000012" cy="199.648816" r="11.2" fill="#c6c6c6" stroke="#1b1b1b" stroke-width="2.418424720363596"/>
    <line x1="30.289874989133946" y1="202.1509449693047" x2="56.587173010866074" y2="234.38873503069533" stroke="#101010" stroke-width="6.04606180090899"/>
  <circle cx="160.59624" cy="521.605672" r="11.2" fill="#c6c6c6" stroke="#1b1b1b" stroke-width="2.418424720363596"/>
    <line x1="162.47833884506508" y1="519.5636303794084" x2="186.79587715493494" y2="493.1795616205917" stroke="#0f0f0f" stroke-width="6.04606180090899"/>
  <circle cx="150.80973600000002" cy="51.76467200000001" r="11.2" fill="#c5c5c5" stroke="#161616" stroke-width="2.418424720363596"/>
    <line x1="152.78481140960616" y1="54.27735753288158" x2="178.25306059039383" y2="86.67799446711842" stroke="#0c0c0c" stroke-width="6.04606180090899"/>
  <circle cx="467.501072" cy="461.987264" r="11.2" fill="#c3c3c3" stroke="#0f0f0f" stroke-width="2.418424720363596"/>
    <line x1="461.1711331571745" y1="465.9110064049644" x2="379.6823148428256" y2="516.4235215950356" stroke="#0e0e0e" stroke-width="6.04606180090899"/>
    <line x1="468.63836624750803" y1="456.1012289818377" x2="483.286641752492" y2="380.2894830181623" stroke="#090909" stroke-width="6.04606180090899"/>
  <circle cx="373.352376" cy="520.347264" r="11.2" fill="#c3c3c3" stroke="#0e0e0e" stroke-width="2.418424720363596"/>
    <line x1="368.11967374888604" y1="518.3336999194241" x2="300.6850302511139" y2="492.3845880805758" stroke="#080808" stroke-width="6.04606180090899"/>
  <circle cx="461.698568" cy="102.39524800000001" r="11.2" fill="#c3c3c3" stroke="#0c0c0c" stroke-width="2.418424720363596"/>
    <line x1="455.18009174799823" y1="98.83735132376484" x2="370.8231242520019" y2="52.79386467623521" stroke="#0b0b0b" stroke-width="6.04606180090899"/>
    <line x1="463.0000049261244" y1="108.55456910548546" x2="479.7884270738757" y2="188.0092708945146" stroke="#080808" stroke-width="6.04606180090899"/>
  <circle cx="364.30464800000004" cy="49.23596800000002" r="11.2" fill="#c2c2c2" stroke="#0a0a0a" stroke-width="2.418424720363596"/>
    <line x1="359.14415610007404" y1="51.827290119900304" x2="292.5174038999261" y2="85.28366988009975" stroke="#060606" stroke-width="6.04606180090899"/>
  <circle cx="530.903216" cy="281.728952" r="11.2" fill="#c2c2c2" stroke="#0a0a0a" stroke-width="2.418424720363596"/>
    <line x1="527.7876418703441" y1="287.94105903385463" x2="487.5395101296559" y2="368.1913409661454" stroke="#070707" stroke-width="6.04606180090899"/>
    <line x1="527.568830466778" y1="275.86787287270676" x2="484.4242495332221" y2="200.02967112729326" stroke="#070707" stroke-width="6.04606180090899"/>
  <circle cx="60.40134400000003" cy="348.073584" r="11.2" fill="#c2c2c2" stroke="#080808" stroke-width="2.418424720363596"/>
    <line x1="60.28247891482049" y1="340.6201667971987" x2="58.747097085179554" y2="244.3442812028013" stroke="#080808" stroke-width="6.04606180090899"/>
    <line x1="65.62233006325422" y1="351.8556591493999" x2="132.9015099367458" y2="400.5926048506001" stroke="#040404" stroke-width="6.04606180090899"/>
  <circle cx="58.62823200000001" cy="236.89086400000002" r="11.2" fill="#c1c1c1" stroke="#070707" stroke-width="2.418424720363596"/>
    <line x1="63.724579054851596" y1="233.19967297697173" x2="129.47522894514844" y2="185.5776790230283" stroke="#040404" stroke-width="6.04606180090899"/>
  <circle cx="188.67797600000003" cy="491.13752000000005" r="11.2" fill="#c1c1c1" stroke="#070707" stroke-width="2.418424720363596"/>
    <line x1="195.8571382032473" y1="491.0859832872121" x2="288.2731657967527" y2="490.4225607127879" stroke="#050505" stroke-width="6.04606180090899"/>
    <line x1="185.27685926644205" y1="485.30055540239334" x2="141.523612733558" y2="410.2116445976068" stroke="#040404" stroke-width="6.04606180090899"/>
  <circle cx="180.228136" cy="89.19067999999999" r="11.2" fill="#c1c1c1" stroke="#050505" stroke-width="2.418424720363596"/>
    <line x1="187.40047823541485" y1="89.10259382032565" x2="280.18456976458515" y2="87.96307817967437" stroke="#030303" stroke-width="6.04606180090899"/>
    <line x1="177.1573358437875" y1="95.42527808813112" x2="137.64237615621252" y2="175.6518899118689" stroke="#030303" stroke-width="6.04606180090899"/>
  <circle cx="484.423936" cy="374.403448" r="11.2" fill="#c1c1c1" stroke="#050505" stroke-width="2.418424720363596"/>
    <line x1="479.1281033231203" y1="372.3723251273826" x2="410.98188867687975" y2="346.23605087261745" stroke="#010101" stroke-width="6.04606180090899"/>
  <circle cx="481.08986400000003" cy="194.16859200000002" r="11.2" fill="#c1c1c1" stroke="#040404" stroke-width="2.418424720363596"/>
    <line x1="475.88334130403246" y1="196.7896805775567" x2="408.87857869596763" y2="230.5214874224433" stroke="#010101" stroke-width="6.04606180090899"/>
  <circle cx="295.452328" cy="490.37102400000003" r="11.2" fill="#c0c0c0" stroke="#030303" stroke-width="2.418424720363596"/>
    <line x1="296.4659414519885" y1="484.43163386261256" x2="309.58229054801154" y2="407.5748061373875" stroke="#010101" stroke-width="6.04606180090899"/>
  <circle cx="287.356912" cy="87.87499200000002" r="11.2" fill="#c0c0c0" stroke="#020202" stroke-width="2.418424720363596"/>
    <line x1="288.66044402758206" y1="94.05722335591628" x2="305.445411972418" y2="173.66290464408377" stroke="#000000" stroke-width="6.04606180090899"/>
  <circle cx="138.122496" cy="404.37468" r="11.2" fill="#c0c0c0" stroke="#020202" stroke-width="2.418424720363596"/>
    <line x1="143.19557974649024" y1="400.64912587911147" x2="208.42672425350975" y2="352.7448981208886" stroke="#000000" stroke-width="6.04606180090899"/>
  <circle cx="134.57157600000002" cy="181.88648800000004" r="11.2" fill="#c0c0c0" stroke="#010101" stroke-width="2.418424720363596"/>
    <line x1="139.8078703844985" y1="185.65604814502774" x2="207.34731361550158" y2="234.2770718549723" stroke="#000000" stroke-width="6.04606180090899"/>
  <circle cx="405.686056" cy="344.204928" r="11.2" fill="#c0c0c0" stroke="#000000" stroke-width="2.418424720363596"/>
    <line x1="405.5509191407965" y1="336.7527842934344" x2="403.8071928592035" y2="240.59471970656568" stroke="#000000" stroke-width="6.04606180090899"/>
    <line x1="399.3140285800535" y1="348.053366945359" x2="316.9679314199465" y2="397.78697705464094" stroke="#000000" stroke-width="6.04606180090899"/>
  <circle cx="403.67205600000005" cy="233.14257600000002" r="11.2" fill="#c0c0c0" stroke="#000000" stroke-width="2.418424720363596"/>
    <line x1="397.1681593792604" y1="229.5661221206603" x2="313.25284062073973" y2="183.4215898793397" stroke="#000000" stroke-width="6.04606180090899"/>
  <circle cx="310.595904" cy="401.635416" r="11.2" fill="#c0c0c0" stroke="#000000" stroke-width="2.418424720363596"/>
    <line x1="304.0682224400765" y1="398.0980856942583" x2="220.02748955992354" y2="352.5566743057417" stroke="#000000" stroke-width="6.04606180090899"/>
  <circle cx="306.74894400000005" cy="179.845136" r="11.2" fill="#c0c0c0" stroke="#000000" stroke-width="2.418424720363596"/>
    <line x1="300.4147731724552" y1="183.76014585121175" x2="218.91777882754482" y2="234.13162214878824" stroke="#000000" stroke-width="6.04606180090899"/>
  <circle cx="213.499808" cy="349.01934400000005" r="11.2" fill="#c0c0c0" stroke="#000000" stroke-width="2.418424720363596"/>
    <line x1="213.4382688689539" y1="341.5655519608106" x2="212.6451471310461" y2="245.50042403918945" stroke="#000000" stroke-width="6.04606180090899"/>
  <circle cx="212.58360800000003" cy="238.046632" r="11.2" fill="#c0c0c0" stroke="#000000" stroke-width="2.418424720363596"/>
</svg>
