<svg xmlns="http://www.w3.org/2000/svg" xmlns:xlink="http://www.w3.org/1999/xlink" width="629" height="595">

  <defs>
    <g id="atom1"> <radialGradient id="radGrad1" cx="0.5" cy="0.5" fx="0.33" fy="0.33" r="0.66"> <stop offset="0%" stop-color="#d0d0d0" /> <stop offset="100%" stop-color="#606060 "/> </radialGradient> <circle cx="0" cy="0" r="19.6" fill="url(#radGrad1)"/></g>
    <g id="atom6"> <radialGradient id="radGrad6" cx="0.5" cy="0.5" fx="0.33" fy="0.33" r="0.66"> <stop offset="0%" stop-color="#808080" /> <stop offset="100%" stop-color="#202020 "/> </radialGradient> <circle cx="0" cy="0" r="39.2" fill="url(#radGrad6)"/></g>
    <g id="atom7"> <radialGradient id="radGrad7" cx="0.5" cy="0.5" fx="0.33" fy="0.33" r="0.66"> <stop offset="0%" stop-color="#2222ff" /> <stop offset="100%" stop-color="#000088 "/> </radialGradient> <circle cx="0" cy="0" r="36.400000000000006" fill="url(#radGrad7)"/></g>
    <g id="atom8"> <radialGradient id="radGrad8" cx="0.5" cy="0.5" fx="0.33" fy="0.33" r="0.66"> <stop offset="0%" stop-color="#ff2222" /> <stop offset="100%" stop-color="#880000 "/> </radialGradient> <circle cx="0" cy="0" r="33.6" fill="url(#radGrad8)"/></g>
  </defs>

  <use x="340.28872" y="122.72472" xlink:href="#atom1"/>
    <line x1="347.01136090546265" y1="118.56992607097105" x2="372.1491981890747" y2="103.03398785805796" stroke="black" stroke-width="6.04606180090899"/>
  <use x="456.47936000000004" y="51.15256000000002" xlink:href="#atom1"/>
    <line x1="445.94575781305207" y1="57.6274024362621" x2="406.6616843738958" y2="81.77471512747587" stroke="black" stroke-width="6.04606180090899"/>
  <use x="385.59448" y="94.72440000000003" xlink:href="#atom6"/>
    <line x1="370.32844733312857" y1="78.24712224279332" x2="341.7846963334356" y2="47.43863887860336" stroke="black" stroke-width="6.04606180090899"/>
    <line x1="392.7292086620261" y1="114.82877459508464" x2="410.9288148138329" y2="166.11197216170711" stroke="black" stroke-width="6.04606180090899"/>
  <use x="590.5861600000001" y="200.442" xlink:href="#atom1"/>
    <line x1="580.0014241763196" y1="204.57569051766515" x2="540.7624316473608" y2="219.89981896466972" stroke="black" stroke-width="6.04606180090899"/>
  <use x="334.15167999999994" y="39.20000000000002" xlink:href="#atom1"/>
  <use x="417.55392" y="184.78032" xlink:href="#atom7"/>
    <line x1="439.8294473140045" y1="194.2518480593529" x2="495.6039305849182" y2="217.96709285915838" stroke="black" stroke-width="6.04606180090899"/>
    <line x1="403.0314288146344" y1="197.5620942730347" x2="365.5499258919321" y2="230.55093232134726" stroke="black" stroke-width="6.04606180090899"/>
  <use x="519.59296" y="228.1672" xlink:href="#atom6"/>
    <line x1="519.5004120199684" y1="248.28667359460994" x2="519.2935374100293" y2="293.2601916621479" stroke="black" stroke-width="6.04606180090899"/>
  <use x="175.3716" y="168.17039999999997" xlink:href="#atom8"/>
    <line x1="189.36614054716554" y1="183.28069154252267" x2="220.1878360283069" y2="216.55972653372356" stroke="black" stroke-width="6.04606180090899"/>
  <use x="349.91031999999996" y="244.31592" xlink:href="#atom6"/>
    <line x1="324.43808271883876" y1="242.0409571751044" x2="261.98703728116124" y2="236.46336282489563" stroke="black" stroke-width="6.04606180090899"/>
    <line x1="365.1745955733801" y1="262.5708099298822" x2="400.13644442661985" y2="304.38247007011785" stroke="black" stroke-width="6.04606180090899"/>
  <use x="519.2076" y="311.94256" xlink:href="#atom7"/>
    <line x1="496.59968227806894" y1="314.2717616719172" x2="439.7477083159257" y2="320.12898896870456" stroke="black" stroke-width="6.04606180090899"/>
  <use x="236.51479999999998" y="234.18840000000003" xlink:href="#atom6"/>
    <line x1="227.756451949823" y1="251.4715971268714" x2="205.9501117608786" y2="294.5029169536195" stroke="black" stroke-width="6.04606180090899"/>
  <use x="415.40072" y="322.63736" xlink:href="#atom6"/>
    <line x1="406.6768925093109" y1="339.46135679440886" x2="385.7110169556398" y2="379.89427726233464" stroke="black" stroke-width="6.04606180090899"/>
  <use x="39.19999999999998" y="365.98984" xlink:href="#atom1"/>
    <line x1="45.51937437278512" y1="358.32808197582153" x2="69.11285125442969" y2="329.72279604835705" stroke="black" stroke-width="6.04606180090899"/>
  <use x="428.1504" y="556.62192" xlink:href="#atom1"/>
    <line x1="430.14202425440965" y1="546.9558736950744" x2="437.58507149118054" y2="510.8321726098513" stroke="black" stroke-width="6.04606180090899"/>
  <use x="197.81735999999995" y="310.5516" xlink:href="#atom7"/>
    <line x1="174.09426283786615" y1="311.3380411217296" x2="107.29955078999023" y2="313.55234340736814" stroke="black" stroke-width="6.04606180090899"/>
    <line x1="211.48507075468632" y1="329.04790213729154" x2="248.3012468795685" y2="378.87066539060913" stroke="black" stroke-width="6.04606180090899"/>
  <use x="47.234799999999986" y="233.68528" xlink:href="#atom1"/>
    <line x1="52.36203328709163" y1="245.67478967454446" x2="71.4971334258167" y2="290.4202606509112" stroke="black" stroke-width="6.04606180090899"/>
  <use x="377.61032" y="395.51656" xlink:href="#atom7"/>
    <line x1="353.5416150755739" y1="396.2040692500099" x2="288.9404637647666" y2="398.04936542306626" stroke="black" stroke-width="6.04606180090899"/>
    <line x1="390.73399508053296" y1="415.2116181563814" x2="427.4351314517337" y2="470.2900173700508" stroke="black" stroke-width="6.04606180090899"/>
  <use x="81.75159999999998" y="314.39928000000003" xlink:href="#atom6"/>
    <line x1="77.820387320375" y1="323.67047543830614" x2="70.48072633981245" y2="340.9800022808469" stroke="black" stroke-width="6.04606180090899"/>
  <use x="263.02031999999997" y="398.78976" xlink:href="#atom6"/>
    <line x1="252.08120219740817" y1="418.6526911216936" x2="231.38430668793586" y2="456.23351046711974" stroke="black" stroke-width="6.04606180090899"/>
  <use x="527.004" y="471.11464" xlink:href="#atom1"/>
    <line x1="514.306847588977" y1="474.14425290465255" x2="466.962624822046" y2="485.4408541906949" stroke="black" stroke-width="6.04606180090899"/>
  <use x="441.56831999999997" y="491.50008" xlink:href="#atom6"/>
    <line x1="435.14865886511586" y1="500.1109829974294" x2="423.167110567442" y2="516.1822285012853" stroke="black" stroke-width="6.04606180090899"/>
  <use x="222.00792" y="473.25888" xlink:href="#atom8"/>
  <use x="68.51511999999997" y="345.6156" xlink:href="#atom1"/>
  <use x="419.95727999999997" y="520.48768" xlink:href="#atom1"/>
</svg>
