<svg xmlns="http://www.w3.org/2000/svg" xmlns:xlink="http://www.w3.org/1999/xlink" width="573" height="539">

  <defs>
    <g id="atom1"> <circle cx="0" cy="0" r="5.6" fill="#808080" stroke="black" stroke-width="3.023030900454495"/> </g>
    <g id="atom6"> <circle cx="0" cy="0" r="11.2" fill="#c0c0c0" stroke="black" stroke-width="3.023030900454495"/> </g>
    <g id="atom7"> <circle cx="0" cy="0" r="10.4" fill="#0000ff" stroke="black" stroke-width="3.023030900454495"/> </g>
    <g id="atom8"> <circle cx="0" cy="0" r="9.6" fill="#ff0000" stroke="black" stroke-width="3.023030900454495"/> </g>
  </defs>

  <use x="312.28872" y="94.72471999999999" xlink:href="#atom1"/>
    <line x1="314.20947454441784" y1="93.53763602027743" x2="353.7529709111642" y2="69.09856795944513" stroke="black" stroke-width="3.023030900454495"/>
  <use x="428.47936000000004" y="23.152560000000015" xlink:href="#atom1"/>
    <line x1="425.46975937515776" y1="25.002514981789183" x2="363.61368124968453" y2="63.02449003642168" stroke="black" stroke-width="3.023030900454495"/>
  <use x="357.59448" y="66.72440000000002" xlink:href="#atom6"/>
    <line x1="353.23275638089393" y1="62.016606355083816" x2="308.33254180955305" y2="13.55389682245811" stroke="black" stroke-width="3.023030900454495"/>
    <line x1="359.63297390343604" y1="72.46850702716705" x2="387.66103280395225" y2="151.44650633191634" stroke="black" stroke-width="3.023030900454495"/>
  <use x="562.5861600000001" y="172.442" xlink:href="#atom1"/>
    <line x1="559.5619497646628" y1="173.62305443361862" x2="497.64138047067445" y2="197.80509113276278" stroke="black" stroke-width="3.023030900454495"/>
  <use x="306.15168" y="11.20000000000001" xlink:href="#atom1"/>
  <use x="389.55392000000006" y="156.78032" xlink:href="#atom7"/>
    <line x1="395.91835637542994" y1="159.48647087410083" x2="484.7389515956909" y2="197.25288367404522" stroke="black" stroke-width="3.023030900454495"/>
    <line x1="385.4046368041813" y1="160.43225550658136" x2="326.37877882626634" y2="212.38306637752777" stroke="black" stroke-width="3.023030900454495"/>
  <use x="491.59295999999995" y="200.16719999999998" xlink:href="#atom6"/>
    <line x1="493.61952522964503" y1="205.9250646984632" x2="493.2851610553768" y2="278.6141841463312" stroke="black" stroke-width="3.023030900454495"/>
    <line x1="489.51351021033685" y1="205.9061773555996" x2="489.17914603606863" y2="278.59529680346765" stroke="black" stroke-width="3.023030900454495"/>
  <use x="147.3716" y="140.1704" xlink:href="#atom8"/>
    <line x1="153.1688843875857" y1="142.82160942320104" x2="205.64879738219756" y2="199.485619420687" stroke="black" stroke-width="3.023030900454495"/>
    <line x1="149.5711959250803" y1="146.1536428868119" x2="202.05110891969215" y2="202.81765288429784" stroke="black" stroke-width="3.023030900454495"/>
  <use x="321.91032" y="216.31592" xlink:href="#atom6"/>
    <line x1="314.6325379196682" y1="215.66593062145841" x2="215.7925820803318" y2="206.8383893785416" stroke="black" stroke-width="3.023030900454495"/>
    <line x1="328.13428546279044" y1="219.97402369696837" x2="384.9022422780018" y2="287.86409802275" stroke="black" stroke-width="3.023030900454495"/>
    <line x1="324.4087977219982" y1="223.08918197725004" x2="381.17675453720955" y2="290.97925630303166" stroke="black" stroke-width="3.023030900454495"/>
  <use x="491.20760000000007" y="283.94255999999996" xlink:href="#atom7"/>
    <line x1="484.7481949365912" y1="284.6080461919763" x2="394.35700237597877" y2="293.920682562487" stroke="black" stroke-width="3.023030900454495"/>
  <use x="208.51480000000004" y="206.1884" xlink:href="#atom6"/>
    <line x1="206.0124148428066" y1="211.12645632196322" x2="172.141003360251" y2="277.96626198674846" stroke="black" stroke-width="3.023030900454495"/>
  <use x="387.40072" y="294.63736" xlink:href="#atom6"/>
    <line x1="384.90819785980307" y1="299.44421622697394" x2="351.92480484446855" y2="363.05305064638134" stroke="black" stroke-width="3.023030900454495"/>
  <use x="11.20000000000001" y="337.98983999999996" xlink:href="#atom1"/>
    <line x1="13.005535535081481" y1="335.80076627880607" x2="50.14052892983707" y2="290.7774274423877" stroke="black" stroke-width="3.023030900454495"/>
  <use x="400.1504" y="528.62192" xlink:href="#atom1"/>
    <line x1="400.7194355012599" y1="525.8601924843069" x2="412.43024899748013" y2="469.02353503138613" stroke="black" stroke-width="3.023030900454495"/>
  <use x="169.81735999999998" y="282.5516" xlink:href="#atom7"/>
    <line x1="163.03933223939032" y1="282.7762974633513" x2="61.05101451142579" y2="286.1572981163909" stroke="black" stroke-width="3.023030900454495"/>
    <line x1="173.72242021562468" y1="287.83625775351186" x2="230.81487053701954" y2="365.09859011160256" stroke="black" stroke-width="3.023030900454495"/>
  <use x="19.234800000000014" y="205.68528" xlink:href="#atom1"/>
    <line x1="20.699723796311915" y1="209.11085419272698" x2="50.82175240737621" y2="279.54813161454604" stroke="black" stroke-width="3.023030900454495"/>
  <use x="349.61032" y="367.51655999999997" xlink:href="#atom7"/>
    <line x1="342.7335471644497" y1="367.71299121428854" x2="242.42607536136188" y2="370.57821869230463" stroke="black" stroke-width="3.023030900454495"/>
    <line x1="353.3599414515809" y1="373.1437194732518" x2="409.5302661290668" y2="457.4400621057288" stroke="black" stroke-width="3.023030900454495"/>
  <use x="53.75160000000001" y="286.39928000000003" xlink:href="#atom6"/>
    <line x1="52.62839637725001" y1="289.0481929823732" x2="41.07672181137499" y2="316.29114350881343" stroke="black" stroke-width="3.023030900454495"/>
  <use x="235.02032" y="370.78976" xlink:href="#atom6"/>
    <line x1="233.9216874769833" y1="377.58111968809527" x2="198.71371733141984" y2="441.51072521535986" stroke="black" stroke-width="3.023030900454495"/>
    <line x1="229.86802806439275" y1="375.3486466671582" x2="194.6600579188293" y2="439.2782521944228" stroke="black" stroke-width="3.023030900454495"/>
  <use x="499.004" y="443.11464" xlink:href="#atom1"/>
    <line x1="495.37624216827913" y1="443.98024368704364" x2="420.8238356634417" y2="461.7688726259129" stroke="black" stroke-width="3.023030900454495"/>
  <use x="413.56831999999997" y="463.50008" xlink:href="#atom6"/>
    <line x1="411.7341311043188" y1="465.96033799926556" x2="392.87437444784064" y2="491.2575510003672" stroke="black" stroke-width="3.023030900454495"/>
  <use x="194.00792" y="445.25888" xlink:href="#atom8"/>
  <use x="40.51511999999999" y="317.6156" xlink:href="#atom1"/>
  <use x="391.95728" y="492.48767999999995" xlink:href="#atom1"/>
</svg>
